# xmcd
#
# Track frame offsets: 
#        150
#        17655
#        35206
#        48412
#        64775
#        87727
#        105223
#        121607
#        136440
#        156290
#        174540
#        192173
#
# Disc length: 2784 seconds
#
# Revision: 7
# Processed by: cddbd v1.5.2PL0 Copyright (c) Steve Scherf et al.
# Submitted via: ExactAudioCopyFreeDBPlugin 1.0
#
DISCID=9e0ade0c
DTITLE=Michala Petri - Art of the Recorder (1985)
DYEAR=1980
DGENRE=Baroque
TTITLE0=VIVALDI: Concerto in C-Major, RV 443 - I. Allegro
TTITLE1=VIVALDI: Concerto in C-Major, RV 443 - II. Largo
TTITLE2=VIVALDI: Concerto in C-Major, RV 443 - III. Allegro molto
TTITLE3=SAMMARTINI: Concerto in F - I. Allegro
TTITLE4=SAMMARTINI: Concerto in F - II. Siciliano
TTITLE5=SAMMARTINI: Concerto in F - III. Allegro assai
TTITLE6=TELEMANN: Concerto in C - I. Allegretto
TTITLE7=TELEMANN: Concerto in C - II. Allegro
TTITLE8=TELEMANN: Concerto in C - III. Andante
TTITLE9=TELEMANN: Concerto in C - IV. Tempo di minuet
TTITLE10=HANDEL: Concerto in F Op. 4#5, HWV 29 - I. Larghetto - Allegr
TTITLE10=o
TTITLE11=HANDEL: Concerto in F Op. 4#5, HWV 29 - II. Alla siciliana - 
TTITLE11=Presto
EXTD=Antonio Vivaldi (1678/1741): Concerto in C major for flautino, RV
EXTD=443\nGiuseppe Sammartini (1695/1750): Concerto in F major for des
EXTD=cant recorder\nGeorg Philipp Telemann (1681/1767): Concerto in Cm
EXTD=ajor for treble recorder\nGeorge Frideric Handel [Georg Friedrich
EXTD=Händel] (1685/1759): Concerto in F major for treble recorder,arr
EXTD=from Organ Concerto, Op.4#5, HWV 293 (c1735 - ©1738).\n Note:HWV
EXTD=293 was itself an adaptation of Handel's earlier Recorder Sonata
EXTD=in F major, Op.1#11, HWV 369 (1725-1726 - ©1732).\nMichala Petri 
EXTD=(b.1958): recorders\nAcademy of St. Martin in the Fields, directe
EXTD=d by Iona Brown (1941/2004).\nRecorded at Henry Wood Hall, London
EXTD=GB, 1979-06.\nProducer: Vittorio Negri\nRecording engineer:Ko Wi
EXTD=tteveen\nOriginally released as Philips LP (1980).\nCD: Philips 4
EXTD=00 075-2 (1983-03-02, 1990-10-25), UPC 028940007521.\nAlso packag
EXTD=ed as disc 1 of the 4-CD set Michala Petri: "The Art of theRecord
EXTD=er", Decca 475 8464 [D|C|4] (2007-05-15), UPC 028947584643.
EXTT0=(Antonio Vivaldi)
EXTT1=(Antonio Vivaldi)
EXTT2=(Antonio Vivaldi)
EXTT3=(Giuseppe Sammartini)
EXTT4=(Giuseppe Sammartini)
EXTT5=(Giuseppe Sammartini)
EXTT6=(Georg Philipp Telemann)
EXTT7=(Georg Philipp Telemann)
EXTT8=(Georg Philipp Telemann)
EXTT9=(Georg Philipp Telemann)
EXTT10=(George Frideric Handel)
EXTT11=(George Frideric Handel)
PLAYORDER=
